<svg data-v-423bf9ae="" xmlns="http://www.w3.org/2000/svg" viewBox="0 0 472 90" class="iconLeft"><!----><!----><!----><g data-v-423bf9ae="" id="e834cb76-6606-43c6-bb16-ef31d426c6da" fill="#292523" transform="matrix(5.509641699578938,0,0,5.509641699578938,109.61431719182383,-6.7630852144755735)"><path d="M0.07 6.24L0.07 6.24Q0.07 6.19 0.10 6.12L0.10 6.12L1.22 4.07Q1.29 3.95 1.39 3.95L1.39 3.95Q1.45 3.95 1.52 4.00L1.52 4.00L1.59 4.07Q1.67 4.14 1.86 4.14L1.86 4.14L9.02 4.14Q9.21 4.14 9.29 4.07L9.29 4.07L9.37 4.00Q9.43 3.95 9.49 3.95L9.49 3.95Q9.60 3.95 9.67 4.07L9.67 4.07L10.78 6.12Q10.81 6.17 10.81 6.24L10.81 6.24Q10.81 6.34 10.70 6.41L10.70 6.41L10.12 6.73Q10.06 6.77 9.99 6.77L9.99 6.77Q9.89 6.77 9.82 6.64L9.82 6.64L9.78 6.57Q9.03 5.28 7.26 5.28L7.26 5.28L6.54 5.28L6.54 12.47Q6.54 13.75 7.49 13.80L7.49 13.80L7.58 13.80Q7.79 13.80 7.79 14.01L7.79 14.01L7.79 14.43Q7.79 14.64 7.58 14.64L7.58 14.64L3.27 14.64Q3.07 14.64 3.07 14.43L3.07 14.43L3.07 14.01Q3.07 13.80 3.27 13.80L3.27 13.80L3.36 13.80Q4.31 13.75 4.31 12.47L4.31 12.47L4.31 5.28L3.62 5.28Q1.86 5.28 1.11 6.57L1.11 6.57L1.07 6.64Q0.99 6.77 0.90 6.77L0.90 6.77Q0.83 6.77 0.77 6.73L0.77 6.73L0.18 6.41Q0.07 6.34 0.07 6.24ZM11.23 14.44L11.23 14.44L11.23 14.01Q11.23 13.81 11.44 13.81L11.44 13.81L11.46 13.81Q12.48 13.81 12.48 12.48L12.48 12.48L12.48 6.32Q12.48 4.99 11.46 4.99L11.46 4.99L11.44 4.99Q11.23 4.99 11.23 4.78L11.23 4.78L11.23 4.36Q11.23 4.15 11.44 4.15L11.44 4.15L18.46 4.15Q18.64 4.15 18.72 4.07L18.72 4.07L18.81 4.00Q18.87 3.96 18.92 3.96L18.92 3.96Q19.03 3.96 19.10 4.07L19.10 4.07L20.21 5.98Q20.25 6.04 20.25 6.10L20.25 6.10Q20.25 6.20 20.14 6.28L20.14 6.28L19.55 6.59Q19.49 6.63 19.43 6.63L19.43 6.63Q19.33 6.63 19.26 6.51L19.26 6.51L19.21 6.43Q18.81 5.74 18.31 5.44Q17.81 5.14 16.98 5.14L16.98 5.14L14.63 5.14L14.63 8.43L15.93 8.43Q17.22 8.43 17.27 7.49L17.27 7.49L17.27 7.39Q17.27 7.18 17.47 7.18L17.47 7.18L17.90 7.18Q18.11 7.18 18.11 7.39L18.11 7.39L18.11 10.58Q18.11 10.78 17.90 10.78L17.90 10.78L17.47 10.78Q17.27 10.78 17.27 10.58L17.27 10.58L17.27 10.49Q17.22 9.54 15.93 9.54L15.93 9.54L14.71 9.54L14.71 12.33Q14.71 13.62 15.67 13.65L15.67 13.65L16.58 13.65Q16.97 13.65 17.22 13.63Q17.47 13.62 17.81 13.55Q18.15 13.49 18.42 13.35Q18.68 13.21 18.99 12.99Q19.30 12.76 19.60 12.40Q19.89 12.04 20.19 11.55L20.19 11.55L20.24 11.47Q20.32 11.35 20.41 11.35L20.41 11.35Q20.47 11.35 20.54 11.39L20.54 11.39L20.99 11.65Q21.10 11.72 21.10 11.82L21.10 11.82Q21.10 11.88 21.06 11.94L21.06 11.94L19.75 14.72Q19.69 14.84 19.58 14.84L19.58 14.84Q19.52 14.84 19.46 14.79L19.46 14.79L19.38 14.72Q19.30 14.65 19.11 14.65L19.11 14.65L11.44 14.65Q11.23 14.65 11.23 14.44ZM21.59 9.50L21.59 9.50Q21.59 8.98 21.67 8.46Q21.74 7.94 21.92 7.39Q22.09 6.84 22.36 6.35Q22.62 5.87 23.03 5.42Q23.45 4.98 23.97 4.67Q24.49 4.35 25.20 4.17Q25.92 3.99 26.75 3.99L26.75 3.99Q27.47 3.99 28.14 4.16Q28.81 4.33 29.41 4.67Q30.00 5.02 30.43 5.60Q30.86 6.17 31.03 6.92L31.03 6.92L31.04 7.01Q31.04 7.22 30.80 7.28L30.80 7.28L29.00 7.90Q28.89 7.94 28.83 7.94L28.83 7.94Q28.65 7.94 28.67 7.79L28.67 7.79L28.69 7.58L28.70 7.33Q28.70 7.01 28.65 6.71Q28.59 6.41 28.44 6.11Q28.29 5.81 28.06 5.59Q27.83 5.37 27.46 5.23Q27.10 5.09 26.64 5.09L26.64 5.09Q26.16 5.09 25.75 5.26Q25.35 5.43 25.06 5.73Q24.78 6.02 24.57 6.40Q24.36 6.77 24.23 7.21Q24.11 7.65 24.05 8.07Q23.99 8.48 23.99 8.89L23.99 8.89Q23.99 10.28 24.31 11.29Q24.62 12.30 25.31 12.88Q26.00 13.47 27.02 13.47L27.02 13.47Q27.62 13.47 28.13 13.32Q28.64 13.18 28.98 12.96Q29.33 12.74 29.62 12.42Q29.91 12.10 30.08 11.82Q30.26 11.53 30.41 11.19L30.41 11.19Q30.50 11.01 30.65 11.01L30.65 11.01Q30.73 11.01 30.83 11.06L30.83 11.06L31.32 11.29Q31.45 11.34 31.49 11.40Q31.53 11.46 31.49 11.57L31.49 11.57Q31.29 12.04 31.03 12.47Q30.77 12.89 30.35 13.33Q29.94 13.76 29.45 14.07Q28.96 14.38 28.27 14.58Q27.58 14.78 26.80 14.78L26.80 14.78Q25.57 14.78 24.57 14.38Q23.58 13.98 22.93 13.27Q22.29 12.56 21.94 11.60Q21.59 10.64 21.59 9.50ZM31.99 14.43L31.99 14.43L31.99 14.01Q31.99 13.80 32.20 13.80L32.20 13.80L32.28 13.80Q33.23 13.75 33.23 12.47L33.23 12.47L33.23 6.32Q33.23 5.03 32.28 4.98L32.28 4.98L32.20 4.98Q31.99 4.98 31.99 4.77L31.99 4.77L31.99 4.35Q31.99 4.14 32.20 4.14L32.20 4.14L36.50 4.14Q36.72 4.14 36.72 4.35L36.72 4.35L36.72 4.77Q36.72 4.98 36.50 4.98L36.50 4.98L36.41 4.98Q35.46 5.03 35.46 6.32L35.46 6.32L35.46 8.70L40.24 8.70L40.24 6.32Q40.24 5.03 39.30 4.98L39.30 4.98L39.20 4.98Q39.00 4.98 39.00 4.77L39.00 4.77L39.00 4.35Q39.00 4.14 39.20 4.14L39.20 4.14L43.51 4.14Q43.72 4.14 43.72 4.35L43.72 4.35L43.72 4.77Q43.72 4.98 43.51 4.98L43.51 4.98L43.43 4.98Q42.49 5.03 42.49 6.32L42.49 6.32L42.49 12.47Q42.49 13.75 43.43 13.80L43.43 13.80L43.51 13.80Q43.72 13.80 43.72 14.01L43.72 14.01L43.72 14.43Q43.72 14.64 43.51 14.64L43.51 14.64L39.20 14.64Q39.00 14.64 39.00 14.43L39.00 14.43L39.00 14.01Q39.00 13.80 39.20 13.80L39.20 13.80L39.30 13.80Q40.24 13.75 40.24 12.47L40.24 12.47L40.24 9.82L35.46 9.82L35.46 12.47Q35.46 13.75 36.41 13.80L36.41 13.80L36.50 13.80Q36.72 13.80 36.72 14.01L36.72 14.01L36.72 14.43Q36.72 14.64 36.50 14.64L36.50 14.64L32.20 14.64Q31.99 14.64 31.99 14.43ZM44.14 9.34L44.14 9.34Q44.14 8.10 44.65 6.99Q45.17 5.89 46.11 5.11Q47.05 4.33 48.26 4.08L48.26 4.08Q48.78 3.97 49.31 3.97L49.31 3.97Q51.17 3.97 52.65 5.19Q54.13 6.41 54.54 8.31L54.54 8.31Q54.66 8.89 54.66 9.48L54.66 9.48Q54.66 10.72 54.14 11.82Q53.63 12.91 52.68 13.68Q51.73 14.45 50.52 14.71L50.52 14.71Q49.98 14.83 49.46 14.83L49.46 14.83Q47.61 14.83 46.14 13.61Q44.67 12.40 44.26 10.50L44.26 10.50Q44.14 9.91 44.14 9.34ZM46.22 8.59L46.22 8.59Q46.22 9.32 46.38 10.05L46.38 10.05Q46.50 10.59 46.68 11.08Q46.86 11.57 47.14 12.03Q47.43 12.50 47.78 12.83Q48.13 13.17 48.60 13.37Q49.07 13.58 49.60 13.58L49.60 13.58Q49.94 13.58 50.27 13.51L50.27 13.51Q50.89 13.37 51.35 13.05Q51.82 12.73 52.07 12.27Q52.33 11.82 52.45 11.31Q52.58 10.79 52.58 10.20L52.58 10.20Q52.58 9.53 52.42 8.76L52.42 8.76Q52.30 8.22 52.12 7.73Q51.93 7.23 51.65 6.76Q51.36 6.30 51.01 5.96Q50.65 5.62 50.18 5.41Q49.71 5.21 49.17 5.21L49.17 5.21Q48.85 5.21 48.51 5.28L48.51 5.28Q48.02 5.38 47.62 5.62Q47.22 5.85 46.97 6.17Q46.71 6.48 46.54 6.88Q46.37 7.28 46.30 7.70Q46.22 8.12 46.22 8.59ZM55.08 14.43L55.08 14.43L55.08 14.01Q55.08 13.80 55.29 13.80L55.29 13.80L55.38 13.80Q56.33 13.75 56.33 12.47L56.33 12.47L56.33 6.32Q56.33 4.98 55.32 4.98L55.32 4.98L55.30 4.98Q55.09 4.98 55.09 4.77L55.09 4.77L55.09 4.35Q55.09 4.14 55.30 4.14L55.30 4.14L60.44 4.14Q61.27 4.14 61.98 4.38Q62.69 4.62 63.16 5.02Q63.64 5.43 63.91 5.97Q64.18 6.51 64.18 7.10L64.18 7.10Q64.18 7.87 63.77 8.53Q63.37 9.19 62.51 9.60L62.51 9.60L64.04 12.47Q64.18 12.73 64.22 12.80Q64.26 12.87 64.39 13.08Q64.52 13.30 64.60 13.37Q64.68 13.45 64.82 13.58Q64.96 13.70 65.11 13.75Q65.26 13.79 65.43 13.80L65.43 13.80L65.52 13.80Q65.72 13.80 65.72 14.01L65.72 14.01L65.72 14.43Q65.72 14.64 65.52 14.64L65.52 14.64L61.21 14.64Q61.00 14.64 61.00 14.43L61.00 14.43L61.00 14.01Q61.00 13.80 61.21 13.80L61.21 13.80L61.30 13.80Q61.63 13.78 61.81 13.60Q61.99 13.41 61.99 13.12L61.99 13.12Q61.99 12.81 61.80 12.47L61.80 12.47L60.53 10.10Q60.10 10.14 59.61 10.14L59.61 10.14L58.56 10.14L58.56 12.47Q58.56 13.75 59.51 13.80L59.51 13.80L59.60 13.80Q59.81 13.80 59.81 14.01L59.81 14.01L59.81 14.43Q59.81 14.64 59.60 14.64L59.60 14.64L55.29 14.64Q55.08 14.64 55.08 14.43ZM58.56 4.98L58.56 9.15L59.38 9.15Q60.74 9.15 61.41 8.61Q62.08 8.07 62.08 7.10Q62.08 6.12 61.48 5.55Q60.88 4.98 59.83 4.98L59.83 4.98L58.56 4.98Z"></path></g><defs data-v-423bf9ae=""><linearGradient data-v-423bf9ae="" gradientTransform="rotate(25)" id="57cdad9f-0ccc-44a4-af8c-188c525aeeca" x1="0%" y1="0%" x2="100%" y2="0%"><stop data-v-423bf9ae="" offset="0%" style="stop-color: rgb(86, 63, 51); stop-opacity: 1;"></stop><stop data-v-423bf9ae="" offset="100%" style="stop-color: rgb(163, 161, 161); stop-opacity: 1;"></stop></linearGradient></defs><g data-v-423bf9ae="" id="f0af1df3-0406-41be-abeb-d0f8299894d0" transform="matrix(2.8125,0,0,2.8125,0,0)" stroke="none" fill="url(#57cdad9f-0ccc-44a4-af8c-188c525aeeca)"><path d="M16 32c8.837 0 16-7.163 16-16S24.837 0 16 0 0 7.163 0 16s7.163 16 16 16zM14.817 6.421h2v8.886h8.887v2H14.817V6.421zm-5.959.437h2v14.283h14.283v2H8.858V6.858z"></path></g><!----></svg>